<svg xmlns="http://www.w3.org/2000/svg" xmlns:xlink="http://www.w3.org/1999/xlink" viewBox="0 0 100 125" version="1.1" x="0px" y="0px"><title>Spitfire side view</title><desc>Created with Sketch.</desc><g stroke="none" stroke-width="1" fill="none" fill-rule="evenodd"><g fill="#000000"><path d="M21.2601889,56.0572765 L17.1907935,57.2908068 L16.400663,55.4729397 C15.340649,55.3455675 14.7492212,55.2745712 14.7492212,55.2745712 C14.7492212,55.2745712 9.5141712,55.2428067 10.0366616,48.2715101 C10.5591521,41.3002135 12.3786523,39 15.659897,39 C18.9411416,39 20.540282,45.4122699 22.8669701,48.9453116 C23.2621075,49.3835647 54.0515258,47.0415071 56.3674326,46.8750335 C58.6833393,46.70856 60.5610493,49.4428061 62.0388223,49.4713023 C71.7888882,49.6593147 83.3212863,49.7873812 84.8282958,50.4696105 C84.8282958,50.6260801 86.1015145,50.1126496 85.0099479,55.7159862 C82.326587,62.1172812 71.2818735,59.3690761 61.7814114,60.9701646 C50.907133,59.62907 31.3952005,57.2767444 21.2601889,56.0572765 Z M86.9879069,55.5111949 C86.0315778,55.7540966 85.2661929,55.8715677 85.2661929,55.8715677 C85.2661929,55.8715677 85.6864235,54.5899192 85.7766734,53.2184071 C85.8669232,51.846895 85.6156452,50.5346666 85.6156452,50.5346666 C85.6156452,50.5346666 85.9511031,50.5917075 86.4497078,50.7073047 C86.2096391,49.7758993 86.2379527,48.5212047 86.3005723,48.1354308 C86.3757465,47.6723131 86.9588904,48.4080859 87.3684185,49.2367553 C87.6534802,49.8135702 87.8120122,50.647671 87.8820448,51.1014005 C89.2385807,51.5418176 90.7013136,52.2428869 90.7013136,53.2184071 C90.7013136,54.0834358 89.4721359,54.7257478 88.1828691,55.161542 C88.5969068,56.0826037 88.779582,57.920254 88.7091836,59.0490585 C88.6376188,60.1965687 87.7462671,58.016411 87.4220294,57.0986848 C87.2406151,56.5852076 87.0875522,55.9612543 86.9879069,55.5111949 L86.9879069,55.5111949 Z M49.4546577,47.8818043 L49.3515926,49.9340211 L52.2425786,50.1033636 L52.2425786,47.6479696 L49.4546577,47.8818043 Z M52.7786778,47.592517 L52.7786778,50.2120883 L57.0623118,50.4678645 L57.8107252,47.6666882 C57.8107252,47.6666882 57.3525875,47.3243223 56.7838473,47.3159392 C56.2151072,47.3075561 52.7786778,47.592517 52.7786778,47.592517 Z M58.2034748,47.8667119 L57.5314978,50.5804469 C57.5314978,50.5804469 59.2547785,50.9957505 59.6061232,50.9957505 C59.957468,50.9957505 60.6088235,49.4567741 60.6088235,49.4567741 L58.2034748,47.8667119 Z M12.2087617,51.5850118 C10.5997566,51.7626631 18.8022783,52.1248196 19.3565358,52.0972048 C19.9107933,52.0695901 28.9017736,51.2275987 23.4056755,51.0271483 C19.7154375,50.8925601 14.9095346,51.2868176 12.2087617,51.5850118 Z M51.0944674,58.2592731 C50.0244263,58.9289744 58.2636038,59.1553738 64.7232969,58.9570564 C71.18299,58.7587389 71.998683,58.8228196 72.6043206,58.421759 C72.9096954,58.219536 71.6142611,57 67.4937325,57 C63.373204,57 52.1645086,57.5895718 51.0944674,58.2592731 Z"/></g></g><text x="0" y="115" fill="#000000" font-size="5px" font-weight="bold" font-family="'Helvetica Neue', Helvetica, Arial-Unicode, Arial, Sans-serif">Created by Joel Wisneski</text><text x="0" y="120" fill="#000000" font-size="5px" font-weight="bold" font-family="'Helvetica Neue', Helvetica, Arial-Unicode, Arial, Sans-serif">from the Noun Project</text></svg>